# xmcd
#
# Track frame offsets:
#	150
#	12037
#	22623
#	36942
#	53737
#	63787
#	76238
#	87667
#	99713
#	110965
#
# Disc length: 1582 seconds
#
# Revision: 2
# Processed by: cddbd v1.5.2PL0 Copyright (c) Steve Scherf et al.
# Submitted via: audiograbber 1.83.01
#
DISCID=73062c0a
DTITLE=Various Artist - Country Legends
DYEAR=1996
DGENRE=Country
TTITLE0=Patsy Cline - Walkin' After Midnight
TTITLE1=Patsy Cline - Walking Dream
TTITLE2=Lee Greenwood - Dixie Road
TTITLE3=Lee Greenwood - Somebody's Gonna Love You
TTITLE4=Merle Haggard - Mama Tried
TTITLE5=Merle Haggard - Okie from Muskogee
TTITLE6=Conway Twitty - Hello Darlin'
TTITLE7=Conway Twitty - Linda on My Mind
TTITLE8=Roger Miller - King of the Road
TTITLE9=Roger Miller - Dang Me
EXTD=
EXTT0=
EXTT1=
EXTT2=
EXTT3=
EXTT4=
EXTT5=
EXTT6=
EXTT7=
EXTT8=
EXTT9=
PLAYORDER=
